<svg xmlns="http://www.w3.org/2000/svg" viewBox="0 -0.5 16 16" shape-rendering="crispEdges">
<metadata>Made with Pixels to Svg https://codepen.io/shshaw/pen/XbxvNj</metadata>
<path stroke="#ffffff" d="M11 0h2M10 1h1M13 1h1M9 2h1M14 2h1M7 3h2M15 3h1M6 4h1M15 4h1M5 5h1M14 5h1M6 6h1M13 6h1" />
<path stroke="#263238" d="M11 1h2M10 2h1M13 2h1M9 3h1M14 3h1M7 4h2M14 4h1M6 5h1M8 5h1M13 5h1M7 6h1M9 6h1M12 6h1M6 7h1M8 7h1M10 7h2M5 8h1M9 8h1M11 8h1M4 9h1M8 9h1M10 9h1M3 10h1M7 10h1M2 11h1M6 11h1M2 12h1M5 12h1M1 13h1M3 13h2M1 14h2" />
<path stroke="#64b5f6" d="M11 2h2M10 3h3M9 4h3M7 5h1M9 5h2M8 6h1" />
<path stroke="#5194c6" d="M13 3h1M12 4h2M11 5h2M10 6h2M9 7h1M10 8h1" />
<path stroke="#fefcfd" d="M5 7h1" />
<path stroke="#c5dde0" d="M7 7h1M6 8h2M5 9h2M4 10h2M3 11h2M3 12h1M2 13h1" />
<path stroke="#fdfcfc" d="M12 7h1" />
<path stroke="#f4f4f5" d="M4 8h1" />
<path stroke="#94d6dd" d="M8 8h1M7 9h1M6 10h1M5 11h1M4 12h1" />
<path stroke="#f4f3f4" d="M12 8h1" />
<path stroke="#ebebeb" d="M3 9h1M9 9h1" />
<path stroke="#eaebea" d="M11 9h1" />
<path stroke="#e2e3e2" d="M2 10h1" />
<path stroke="#e2e1e2" d="M8 10h1" />
<path stroke="#e2e2e2" d="M10 10h1" />
<path stroke="#d9dada" d="M1 11h1" />
<path stroke="#dad9da" d="M7 11h1" />
<path stroke="#d1d2d1" d="M1 12h1" />
<path stroke="#d0d0d0" d="M6 12h1" />
<path stroke="#c8c8c8" d="M0 13h1" />
<path stroke="#c8c7c7" d="M5 13h1" />
<path stroke="#c0bfbf" d="M0 14h1" />
<path stroke="#bfbfbe" d="M3 14h2" />
<path stroke="#b6b7b6" d="M1 15h1" />
<path stroke="#b6b6b7" d="M2 15h1" />
</svg>