<svg xmlns="http://www.w3.org/2000/svg" viewBox="0 -0.5 16 16" shape-rendering="crispEdges">
<metadata>Made with Pixels to Svg https://codepen.io/shshaw/pen/XbxvNj</metadata>
<path stroke="#ffffff" d="M9 0h6M8 1h1M15 1h1M2 2h6M15 2h1M1 3h1M15 3h1M0 4h1M15 4h1M0 5h1M15 5h1M0 6h1M15 6h1M0 7h1M15 7h1" />
<path stroke="#263238" d="M9 1h6M8 2h1M14 2h1M2 3h13M1 4h1M14 4h1M1 5h1M14 5h1M1 6h1M14 6h1M1 7h1M14 7h1M1 8h1M14 8h1M1 9h1M14 9h1M1 10h1M14 10h1M1 11h1M14 11h1M1 12h1M14 12h1M1 13h1M14 13h1M1 14h14" />
<path stroke="#ffb74d" d="M9 2h4M2 4h11M2 5h11M2 6h11M2 7h11M2 8h11M2 9h11M2 10h11M2 11h11M2 12h11" />
<path stroke="#b78238" d="M13 2h1M13 4h1M13 5h1M13 6h1M13 7h1M13 8h1M13 9h1M13 10h1M13 11h1M13 12h1M2 13h12" />
<path stroke="#fcfcfc" d="M0 8h1" />
<path stroke="#f8f7f8" d="M15 8h1" />
<path stroke="#f3f4f2" d="M0 9h1" />
<path stroke="#f0efee" d="M15 9h1" />
<path stroke="#eae9ea" d="M0 10h1" />
<path stroke="#e6e6e6" d="M15 10h1" />
<path stroke="#e1e1e1" d="M0 11h1" />
<path stroke="#dedddd" d="M15 11h1" />
<path stroke="#d8d8d9" d="M0 12h1" />
<path stroke="#d5d4d4" d="M15 12h1" />
<path stroke="#cfcfcf" d="M0 13h1" />
<path stroke="#cbcbcc" d="M15 13h1" />
<path stroke="#c6c7c6" d="M0 14h1" />
<path stroke="#c1c2c2" d="M15 14h1" />
<path stroke="#bebcbe" d="M1 15h1" />
<path stroke="#bcbdbd" d="M2 15h1" />
<path stroke="#bdbcbd" d="M3 15h1" />
<path stroke="#bcbcbc" d="M4 15h1" />
<path stroke="#bbbcbc" d="M5 15h1" />
<path stroke="#bbbcbb" d="M6 15h1" />
<path stroke="#bcbcbb" d="M7 15h1" />
<path stroke="#bbbbbb" d="M8 15h1" />
<path stroke="#babbbb" d="M9 15h1" />
<path stroke="#bbbbba" d="M10 15h1" />
<path stroke="#bbb9bb" d="M11 15h1" />
<path stroke="#bababa" d="M12 15h1" />
<path stroke="#babab9" d="M13 15h1" />
<path stroke="#b9bab9" d="M14 15h1" />
</svg>