<svg xmlns="http://www.w3.org/2000/svg" viewBox="0 -0.5 16 16" shape-rendering="crispEdges">
<metadata>Made with Pixels to Svg https://codepen.io/shshaw/pen/XbxvNj</metadata>
<path stroke="#ffffff" d="M8 0h4M7 1h2M11 1h1M7 2h1M11 2h1M3 3h5M9 3h5M2 4h2M6 4h5M13 4h2M1 5h2M14 5h2M1 6h1M15 6h1M1 7h1M14 7h2M1 8h1M12 8h3M1 9h1M12 9h1M1 10h1M12 10h4M1 11h1M15 11h1M1 12h2M14 12h2M2 13h2M13 13h2M3 14h2M7 14h3M12 14h2M4 15h4M9 15h4" />
<path stroke="#e0e0e0" d="M9 1h2M8 2h1M4 4h2M11 4h2M3 5h11M2 6h10M2 7h10M2 8h10M2 9h10M3 10h9M4 11h9M5 12h2M10 12h2" />
<path stroke="#7f8589" d="M9 2h2M8 3h1M12 6h3M12 7h2M2 10h1M2 11h2M13 11h2M3 12h2M7 12h3M12 12h2M4 13h9M5 14h2M10 14h2" />
</svg>