<svg xmlns="http://www.w3.org/2000/svg" viewBox="0 -0.5 16 16" shape-rendering="crispEdges">
<metadata>Made with Pixels to Svg https://codepen.io/shshaw/pen/XbxvNj</metadata>
<path stroke="#889ea8" d="M8 0h1" />
<path stroke="#899ea9" d="M9 0h1" />
<path stroke="#8ba0aa" d="M10 0h1" />
<path stroke="#8ca1ab" d="M11 0h1" />
<path stroke="#92a7b0" d="M7 1h1" />
<path stroke="#94a8b0" d="M8 1h1" />
<path stroke="#e0e0e0" d="M9 1h2M8 2h1M4 4h2M11 4h2M3 5h11M2 6h10M2 7h10M2 8h10M2 9h10M3 10h9M4 11h9M5 12h2M10 12h2" />
<path stroke="#98abb4" d="M11 1h1" />
<path stroke="#9eb1b9" d="M7 2h1" />
<path stroke="#7f8589" d="M9 2h2M8 3h1M12 6h3M12 7h2M2 10h1M2 11h2M13 11h2M3 12h2M7 12h3M12 12h2M4 13h9M5 14h2M10 14h2" />
<path stroke="#a3b6bc" d="M11 2h1" />
<path stroke="#a6b6be" d="M3 3h1" />
<path stroke="#a7b7bf" d="M4 3h1" />
<path stroke="#a8b8bf" d="M5 3h1" />
<path stroke="#aabac1" d="M6 3h1" />
<path stroke="#abbbc1" d="M7 3h1" />
<path stroke="#adbdc4" d="M9 3h1" />
<path stroke="#aebfc4" d="M10 3h1" />
<path stroke="#b0bfc6" d="M11 3h1" />
<path stroke="#b1c0c7" d="M12 3h1" />
<path stroke="#b3c1c7" d="M13 3h1" />
<path stroke="#b0bfc5" d="M2 4h1" />
<path stroke="#b2bfc8" d="M3 4h1" />
<path stroke="#b6c3ca" d="M6 4h1" />
<path stroke="#b8c4cb" d="M7 4h1" />
<path stroke="#b8c6cb" d="M8 4h1" />
<path stroke="#b9c7cd" d="M9 4h1" />
<path stroke="#bbc8cd" d="M10 4h1" />
<path stroke="#bfcbd0" d="M13 4h1" />
<path stroke="#c0ccd1" d="M14 4h1" />
<path stroke="#bbc8ce" d="M1 5h1" />
<path stroke="#bdc9cf" d="M2 5h1" />
<path stroke="#cdd6db" d="M14 5h1" />
<path stroke="#ced8db" d="M15 5h1" />
<path stroke="#c7d2d6" d="M1 6h1" />
<path stroke="#dae0e5" d="M15 6h1" />
<path stroke="#d4dbdf" d="M1 7h1" />
<path stroke="#e5eaed" d="M14 7h1" />
<path stroke="#e6ebed" d="M15 7h1" />
<path stroke="#e0e6e8" d="M1 8h1" />
<path stroke="#eff1f4" d="M12 8h1" />
<path stroke="#f0f2f4" d="M13 8h1" />
<path stroke="#f1f4f4" d="M14 8h1" />
<path stroke="#ebf0f1" d="M1 9h1" />
<path stroke="#fbfcfc" d="M12 9h1" />
<path stroke="#f8fafa" d="M1 10h1" />
<path stroke="#ffffff" d="M12 10h4M1 11h1M15 11h1M1 12h2M14 12h2M2 13h2M13 13h2M3 14h2M7 14h3M12 14h2M4 15h4M9 15h4" />
</svg>