<svg xmlns="http://www.w3.org/2000/svg" viewBox="0 -0.5 16 16" shape-rendering="crispEdges">
<metadata>Made with Pixels to Svg https://codepen.io/shshaw/pen/XbxvNj</metadata>
<path stroke="#263238" d="M2 1h4M10 1h4M1 2h1M6 2h1M9 2h1M14 2h1M1 3h1M6 3h1M9 3h1M14 3h1M1 4h1M6 4h1M9 4h1M14 4h1M1 5h1M6 5h1M9 5h1M14 5h1M1 6h1M6 6h1M9 6h1M14 6h1M1 7h1M6 7h1M9 7h1M14 7h1M1 8h1M6 8h1M9 8h1M14 8h1M1 9h1M6 9h1M9 9h1M14 9h1M1 10h1M6 10h1M9 10h1M14 10h1M1 11h1M6 11h1M9 11h1M14 11h1M1 12h1M6 12h1M9 12h1M14 12h1M1 13h1M6 13h1M9 13h1M14 13h1M2 14h4M10 14h4" />
<path stroke="#ffffff" d="M2 2h4M10 2h4M5 3h1M13 3h1M5 4h1M13 4h1M5 5h1M13 5h1M5 6h1M13 6h1M5 7h1M13 7h1M5 8h1M13 8h1M5 9h1M13 9h1M5 10h1M13 10h1M5 11h1M13 11h1M5 12h1M13 12h1" />
<path stroke="#bdbdbd" d="M2 3h1M10 3h1M2 4h1M10 4h1M2 5h1M10 5h1M2 6h1M10 6h1M2 7h1M10 7h1M2 8h1M10 8h1M2 9h1M10 9h1M2 10h1M10 10h1M2 11h1M10 11h1M2 12h1M10 12h1M2 13h4M10 13h4" />
<path stroke="#e0e0e0" d="M3 3h2M11 3h2M3 4h2M11 4h2M3 5h2M11 5h2M3 6h2M11 6h2M3 7h2M11 7h2M3 8h2M11 8h2M3 9h2M11 9h2M3 10h2M11 10h2M3 11h2M11 11h2M3 12h2M11 12h2" />
</svg>