<svg xmlns="http://www.w3.org/2000/svg" viewBox="0 -0.5 16 16" shape-rendering="crispEdges">
<metadata>Made with Pixels to Svg https://codepen.io/shshaw/pen/XbxvNj</metadata>
<path stroke="#263238" d="M10 1h1M9 2h1M11 2h1M8 3h1M12 3h1M7 4h1M13 4h1M6 5h1M14 5h1M5 6h1M13 6h1M4 7h1M12 7h1M3 8h1M11 8h1M2 9h1M10 9h1M1 10h1M9 10h1M1 11h1M8 11h1M1 12h1M7 12h1M1 13h1M6 13h1M1 14h5" />
<path stroke="#e57373" d="M10 2h1M9 3h3M10 4h3M11 5h3M12 6h1" />
<path stroke="#fff176" d="M8 4h1M7 5h3M6 6h5M5 7h7M4 8h7M3 9h7M4 10h5M5 11h3M6 12h1" />
<path stroke="#aed581" d="M9 4h1M10 5h1M11 6h1" />
<path stroke="#a1887f" d="M2 10h2M2 11h3M2 12h4M3 13h3" />
<path stroke="#e0e0e0" d="M2 13h1" />
</svg>