<svg xmlns="http://www.w3.org/2000/svg" viewBox="0 -0.5 16 16" shape-rendering="crispEdges">
<metadata>Made with Pixels to Svg https://codepen.io/shshaw/pen/XbxvNj</metadata>
<path stroke="#263238" d="M2 1h2M1 2h1M4 2h2M1 3h1M6 3h2M1 4h1M8 4h2M1 5h1M10 5h2M1 6h1M12 6h2M1 7h1M14 7h1M1 8h1M14 8h1M1 9h1M12 9h2M1 10h1M10 10h2M1 11h1M8 11h2M1 12h1M6 12h2M1 13h1M4 13h2M2 14h2" />
<path stroke="#ffffff" d="M2 2h2M4 3h2M6 4h2M8 5h2M10 6h2M12 7h2" />
<path stroke="#e0e0e0" d="M2 3h2M2 4h4M2 5h6M2 6h8M2 7h10M2 8h10M2 9h8M2 10h6M2 11h4M2 12h2" />
<path stroke="#bdbdbd" d="M12 8h2M10 9h2M8 10h2M6 11h2M4 12h2M2 13h2" />
</svg>