<svg xmlns="http://www.w3.org/2000/svg" viewBox="0 -0.5 16 16" shape-rendering="crispEdges">
<metadata>Made with Pixels to Svg https://codepen.io/shshaw/pen/XbxvNj</metadata>
<path stroke="#ffffff" d="M2 0h2M1 1h1M4 1h2M0 2h1M2 2h2M6 2h2M0 3h1M4 3h2M8 3h2M0 4h1M6 4h2M10 4h2M0 5h1M8 5h2M12 5h2M0 6h1M10 6h2M14 6h1M12 7h2" />
<path stroke="#263238" d="M2 1h2M1 2h1M4 2h2M1 3h1M6 3h2M1 4h1M8 4h2M1 5h1M10 5h2M1 6h1M12 6h2M1 7h1M14 7h1M1 8h1M14 8h1M1 9h1M12 9h2M1 10h1M10 10h2M1 11h1M8 11h2M1 12h1M6 12h2M1 13h1M4 13h2M2 14h2" />
<path stroke="#e0e0e0" d="M2 3h2M2 4h4M2 5h6M2 6h8M2 7h10M2 8h10M2 9h8M2 10h6M2 11h4M2 12h2" />
<path stroke="#fffefe" d="M0 7h1" />
<path stroke="#fdfdfe" d="M15 7h1" />
<path stroke="#f3f4f3" d="M0 8h1" />
<path stroke="#bdbdbd" d="M12 8h2M10 9h2M8 10h2M6 11h2M4 12h2M2 13h2" />
<path stroke="#f3f2f2" d="M15 8h1" />
<path stroke="#e7e8e8" d="M0 9h1" />
<path stroke="#e7e8e7" d="M14 9h1" />
<path stroke="#deddde" d="M0 10h1" />
<path stroke="#dddcdd" d="M12 10h1" />
<path stroke="#dcdddc" d="M13 10h1" />
<path stroke="#d2d3d2" d="M0 11h1" />
<path stroke="#d2d2d2" d="M10 11h1" />
<path stroke="#d1d2d1" d="M11 11h1" />
<path stroke="#c7c8c7" d="M0 12h1" />
<path stroke="#c6c8c7" d="M8 12h1" />
<path stroke="#c7c6c7" d="M9 12h1" />
<path stroke="#bcbcbc" d="M0 13h1M7 13h1" />
<path stroke="#bdbcbc" d="M6 13h1" />
<path stroke="#b2b2b2" d="M1 14h1M4 14h2M2 15h2" />
</svg>