<svg xmlns="http://www.w3.org/2000/svg" viewBox="0 -0.5 16 16" shape-rendering="crispEdges">
<metadata>Made with Pixels to Svg https://codepen.io/shshaw/pen/XbxvNj</metadata>
<path stroke="#ffffff" d="M5 0h4M4 1h1M9 1h1M1 2h4M9 2h4M0 3h1M13 3h1M0 4h1M13 4h1M0 5h1M13 5h1M0 6h1M13 6h2" />
<path stroke="#263238" d="M5 1h4M5 2h1M8 2h1M1 3h5M8 3h5M1 4h1M12 4h1M1 5h1M12 5h1M1 6h1M12 6h1M1 7h3M12 7h3M3 8h1M14 8h1M3 9h1M14 9h1M1 10h3M12 10h3M1 11h1M12 11h1M1 12h1M5 12h4M12 12h1M1 13h1M5 13h1M8 13h1M12 13h1M1 14h5M8 14h5" />
<path stroke="#abdef4" d="M6 2h2M2 4h4M8 4h4M12 8h2" />
<path stroke="#4fc3f7" d="M6 3h2M6 4h2M2 5h10M4 6h8M4 7h8M4 8h8M4 9h8M4 10h8M2 11h3M9 11h3M2 12h3M9 12h3" />
<path stroke="#327d9e" d="M2 6h2M12 9h2M5 11h4M2 13h3M9 13h3" />
<path stroke="#f8f9f8" d="M0 7h1" />
<path stroke="#fbfafb" d="M15 7h1" />
<path stroke="#f1f1f0" d="M1 8h1" />
<path stroke="#f1f1f1" d="M2 8h1" />
<path stroke="#f2f2f3" d="M15 8h1" />
<path stroke="#e9e8e8" d="M1 9h1" />
<path stroke="#e9e9e8" d="M2 9h1" />
<path stroke="#ebebea" d="M15 9h1" />
<path stroke="#e0e1e0" d="M0 10h1" />
<path stroke="#e2e2e2" d="M15 10h1" />
<path stroke="#d8d8d8" d="M0 11h1" />
<path stroke="#dadbd9" d="M13 11h1" />
<path stroke="#dbd9db" d="M14 11h1" />
<path stroke="#d0d1d0" d="M0 12h1" />
<path stroke="#d2d2d2" d="M13 12h1" />
<path stroke="#c9c8c8" d="M0 13h1" />
<path stroke="#c9c9c9" d="M6 13h1" />
<path stroke="#c9c9ca" d="M7 13h1" />
<path stroke="#c9caca" d="M13 13h1" />
<path stroke="#c0c0c1" d="M0 14h1" />
<path stroke="#c0c1c1" d="M6 14h1" />
<path stroke="#c2c1c1" d="M7 14h1" />
<path stroke="#c2c2c2" d="M13 14h1" />
<path stroke="#b8b9b8" d="M1 15h1" />
<path stroke="#b9b8b8" d="M2 15h1" />
<path stroke="#b9b9b8" d="M3 15h1" />
<path stroke="#b9b9b9" d="M4 15h2" />
<path stroke="#b9bab9" d="M8 15h2" />
<path stroke="#babab9" d="M10 15h1" />
<path stroke="#bab9ba" d="M11 15h2" />
</svg>