<svg xmlns="http://www.w3.org/2000/svg" viewBox="0 -0.5 16 16" shape-rendering="crispEdges">
<metadata>Made with Pixels to Svg https://codepen.io/shshaw/pen/XbxvNj</metadata>
<path stroke="#263238" d="M5 1h4M5 2h1M8 2h1M1 3h5M8 3h5M1 4h1M12 4h1M1 5h1M12 5h1M1 6h1M12 6h1M1 7h3M12 7h3M3 8h1M14 8h1M3 9h1M14 9h1M1 10h3M12 10h3M1 11h1M12 11h1M1 12h1M5 12h4M12 12h1M1 13h1M5 13h1M8 13h1M12 13h1M1 14h5M8 14h5" />
<path stroke="#abdef4" d="M6 2h2M2 4h4M8 4h4M12 8h2" />
<path stroke="#4fc3f7" d="M6 3h2M6 4h2M2 5h10M4 6h8M4 7h8M4 8h8M4 9h8M4 10h8M2 11h3M9 11h3M2 12h3M9 12h3" />
<path stroke="#327d9e" d="M2 6h2M12 9h2M5 11h4M2 13h3M9 13h3" />
</svg>