<svg xmlns="http://www.w3.org/2000/svg" viewBox="0 -0.5 16 16" shape-rendering="crispEdges">
<metadata>Made with Pixels to Svg https://codepen.io/shshaw/pen/XbxvNj</metadata>
<path stroke="#263238" d="M6 1h5M5 2h1M11 2h1M1 3h2M4 3h1M12 3h1M1 4h1M3 4h1M13 4h1M1 5h1M8 5h2M14 5h1M1 6h1M7 6h1M10 6h1M14 6h1M1 7h1M6 7h1M11 7h1M14 7h1M1 8h1M7 8h1M11 8h1M14 8h1M1 9h7M11 9h1M14 9h1M10 10h1M14 10h1M4 11h1M9 11h1M13 11h1M4 12h5M12 12h1M4 13h1M11 13h1M5 14h6" />
<path stroke="#ffffff" d="M6 2h5M5 3h1M11 3h1M2 4h1M4 4h1M12 4h1M2 5h2M13 5h1M2 6h1M13 6h1M2 7h1M13 7h1M13 8h1M13 9h1" />
<path stroke="#e0e0e0" d="M6 3h5M5 4h3M10 4h2M4 5h3M11 5h2M3 6h3M12 6h1M3 7h2M12 7h1M12 8h1M12 9h1M11 10h2M10 11h2M9 12h2" />
<path stroke="#c1c1c1" d="M8 4h2M7 5h1M10 5h1M6 6h1M11 6h1M5 7h1M2 8h5M13 10h1M12 11h1M11 12h1M5 13h6" />
</svg>