<svg xmlns="http://www.w3.org/2000/svg" viewBox="0 -0.5 16 16" shape-rendering="crispEdges">
<metadata>Made with Pixels to Svg https://codepen.io/shshaw/pen/XbxvNj</metadata>
<path stroke="#263238" d="M2 1h2M7 1h2M1 2h1M4 2h1M6 2h1M9 2h1M1 3h1M4 3h1M6 3h1M10 3h1M1 4h1M4 4h1M6 4h1M11 4h1M1 5h1M4 5h1M6 5h1M12 5h1M1 6h1M4 6h1M6 6h1M13 6h1M1 7h1M4 7h1M6 7h1M14 7h1M1 8h1M4 8h1M6 8h1M14 8h1M1 9h1M4 9h1M6 9h1M13 9h1M1 10h1M4 10h1M6 10h1M12 10h1M1 11h1M4 11h1M6 11h1M11 11h1M1 12h1M4 12h1M6 12h1M10 12h1M1 13h1M4 13h1M6 13h1M9 13h1M2 14h2M7 14h2" />
<path stroke="#ffffff" d="M2 2h2M7 2h2M3 3h1M9 3h1M3 4h1M10 4h1M3 5h1M11 5h1M3 6h1M12 6h1M3 7h1M13 7h1M3 8h1M3 9h1M3 10h1M3 11h1M3 12h1" />
<path stroke="#e0e0e0" d="M2 3h1M7 3h2M2 4h1M7 4h3M2 5h1M7 5h4M2 6h1M7 6h5M2 7h1M7 7h6M2 8h1M7 8h6M2 9h1M7 9h5M2 10h1M7 10h4M2 11h1M7 11h3M2 12h1M7 12h2" />
<path stroke="#bdbdbd" d="M13 8h1M12 9h1M11 10h1M10 11h1M9 12h1M2 13h2M7 13h2" />
</svg>