<svg xmlns="http://www.w3.org/2000/svg" viewBox="0 -0.5 16 16" shape-rendering="crispEdges">
<metadata>Made with Pixels to Svg https://codepen.io/shshaw/pen/XbxvNj</metadata>
<path stroke="#ffffff" d="M6 0h4M5 1h1M10 1h1M2 2h4M10 2h4M1 3h1M14 3h1M1 4h1M14 4h1M2 5h12M2 6h1M13 6h1M2 7h1M13 7h1M2 8h1M13 8h1M2 9h1M13 9h1M2 10h1M13 10h1M2 11h1M13 11h1M2 12h1M13 12h1M2 13h1M13 13h1M3 14h10" />
<path stroke="#263238" d="M6 1h4M6 2h1M9 2h1M2 3h12M2 4h12M3 6h10M3 7h1M12 7h1M3 8h1M6 8h1M9 8h1M12 8h1M3 9h1M6 9h1M9 9h1M12 9h1M3 10h1M6 10h1M9 10h1M12 10h1M3 11h1M6 11h1M9 11h1M12 11h1M3 12h1M12 12h1M3 13h10" />
<path stroke="#e0e0e0" d="M7 2h2M4 7h8M4 8h2M7 8h2M10 8h2M4 9h2M7 9h2M10 9h2M4 10h2M7 10h2M10 10h2M4 11h2M7 11h2M10 11h2M4 12h8" />
</svg>