<svg xmlns="http://www.w3.org/2000/svg" viewBox="0 -0.5 16 16" shape-rendering="crispEdges">
<metadata>Made with Pixels to Svg https://codepen.io/shshaw/pen/XbxvNj</metadata>
<path stroke="#ffffff" d="M1 0h14M0 1h1M15 1h1M0 2h1M15 2h1M0 3h1M15 3h1M0 4h1M15 4h1M0 5h1M15 5h1M0 6h1M15 6h1" />
<path stroke="#ffb74d" d="M1 1h7M1 2h7M1 3h3M7 3h1M1 4h5M7 4h1M1 5h5M7 5h1M2 6h1M4 6h2M7 6h1M2 7h1M5 7h1M7 7h1M2 8h2M7 8h1M3 9h2M7 9h1M3 10h5M4 11h4M5 12h3" />
<path stroke="#ffd54f" d="M8 1h7M8 2h7M8 3h1M12 3h3M8 4h1M10 4h5M8 5h1M10 5h5M8 6h1M12 6h2M8 7h3M12 7h2M8 8h2M12 8h2M8 9h1M11 9h2M8 10h5M8 11h4M8 12h3" />
<path stroke="#263238" d="M4 3h3M9 3h3M6 4h1M9 4h1M6 5h1M9 5h1M3 6h1M6 6h1M9 6h3M3 7h2M6 7h1M11 7h1M4 8h3M10 8h2M5 9h2M9 9h2" />
<path stroke="#927442" d="M1 6h1M1 7h1M2 9h1M2 10h1M3 11h1" />
<path stroke="#928343" d="M14 6h1M14 7h1M13 9h1M13 10h1M12 11h1" />
<path stroke="#f7f8f7" d="M0 7h1" />
<path stroke="#fafafa" d="M15 7h1" />
<path stroke="#f0f0f0" d="M1 8h1" />
<path stroke="#f2f2f2" d="M14 8h1" />
<path stroke="#e7e8e7" d="M1 9h1" />
<path stroke="#eaeae9" d="M14 9h1" />
<path stroke="#dfe0df" d="M1 10h1" />
<path stroke="#e2e1e2" d="M14 10h1" />
<path stroke="#d8d8d7" d="M2 11h1" />
<path stroke="#d9dada" d="M13 11h1" />
<path stroke="#d0d0d0" d="M2 12h1" />
<path stroke="#957642" d="M3 12h2M4 13h4M5 14h3" />
<path stroke="#958543" d="M11 12h2M8 13h4M8 14h3" />
<path stroke="#d1d2d1" d="M13 12h1" />
<path stroke="#c7c7c8" d="M3 13h1" />
<path stroke="#c9c9ca" d="M12 13h1" />
<path stroke="#c0c0c0" d="M4 14h1" />
<path stroke="#c2c1c1" d="M11 14h1" />
<path stroke="#b7b8b8" d="M5 15h1" />
<path stroke="#b8b8b8" d="M6 15h1" />
<path stroke="#b8b8b9" d="M7 15h1" />
<path stroke="#b9b8b9" d="M8 15h1" />
<path stroke="#b9b9b9" d="M9 15h2" />
</svg>