<svg xmlns="http://www.w3.org/2000/svg" viewBox="0 -0.5 16 16" shape-rendering="crispEdges">
<metadata>Made with Pixels to Svg https://codepen.io/shshaw/pen/XbxvNj</metadata>
<path stroke="#263238" d="M1 1h14M1 2h1M3 2h1M7 2h6M14 2h1M1 3h14M1 4h1M8 4h1M14 4h1M1 5h1M8 5h1M14 5h1M1 6h1M8 6h1M14 6h1M1 7h1M8 7h1M14 7h1M1 8h1M8 8h7M1 9h1M8 9h1M11 9h1M14 9h1M1 10h1M8 10h1M11 10h1M14 10h1M1 11h1M8 11h1M11 11h1M14 11h1M1 12h1M8 12h1M11 12h1M14 12h1M1 13h1M8 13h1M11 13h1M14 13h1M1 14h14" />
<path stroke="#e0e0e0" d="M2 2h1M4 2h3M2 4h6M9 4h5M2 5h6M9 5h5M2 6h6M9 6h5M2 7h6M9 7h5M2 8h6M2 9h6M9 9h2M12 9h2M2 10h6M9 10h2M12 10h2M2 11h6M9 11h2M12 11h2M2 12h6M9 12h2M12 12h2M2 13h6M9 13h2M12 13h2" />
<path stroke="#f06292" d="M13 2h1" />
</svg>