<svg xmlns="http://www.w3.org/2000/svg" viewBox="0 -0.5 16 16" shape-rendering="crispEdges">
<metadata>Made with Pixels to Svg https://codepen.io/shshaw/pen/XbxvNj</metadata>
<path stroke="#263238" d="M1 1h14M1 2h1M3 2h1M7 2h6M14 2h1M1 3h14M1 4h1M14 4h1M1 5h1M6 5h4M14 5h1M1 6h1M5 6h1M10 6h1M14 6h1M1 7h1M4 7h1M11 7h1M14 7h1M1 8h1M3 8h1M7 8h2M12 8h1M14 8h1M1 9h1M3 9h1M7 9h2M12 9h1M14 9h1M1 10h1M4 10h1M11 10h1M14 10h1M1 11h1M5 11h1M10 11h1M14 11h1M1 12h1M6 12h4M14 12h1M1 13h1M14 13h1M1 14h14" />
<path stroke="#e0e0e0" d="M2 2h1M4 2h3M2 4h12M2 5h4M10 5h4M2 6h3M11 6h3M2 7h2M12 7h2M2 8h1M13 8h1M2 9h1M13 9h1M2 10h2M12 10h2M2 11h3M11 11h3M2 12h4M10 12h4M2 13h12" />
<path stroke="#f06292" d="M13 2h1" />
<path stroke="#ffffff" d="M6 6h4M5 7h6M4 8h3M9 8h3M4 9h3M9 9h3M5 10h6M6 11h4" />
</svg>