<svg xmlns="http://www.w3.org/2000/svg" viewBox="0 -0.5 16 16" shape-rendering="crispEdges">
<metadata>Made with Pixels to Svg https://codepen.io/shshaw/pen/XbxvNj</metadata>
<path stroke="#fffeff" d="M5 0h1M7 0h1M7 2h1M1 4h1M8 4h1M0 5h1M3 6h1M13 12h1" />
<path stroke="#ffffff" d="M6 0h1M8 0h1M4 1h1M9 1h1M3 2h1M6 2h1M8 2h1M10 2h1M2 3h1M4 3h1M7 3h3M11 3h1M3 4h1M5 4h1M9 4h1M11 4h1M8 5h2M7 6h3M4 7h1M6 7h1M8 7h2M5 8h1M9 8h2M10 9h2M12 10h1M13 11h1" />
<path stroke="#263238" d="M5 1h1M7 1h2M4 2h1M9 2h1M2 4h1M10 4h1M1 5h1M3 5h1M1 6h1M4 6h1M6 6h1M10 7h1M3 10h4M8 11h1M12 11h1M9 12h1M11 12h1M14 12h1M10 13h1M13 13h1" />
<path stroke="#263338" d="M6 1h1M5 3h1M10 3h1M6 4h1M7 5h1M10 5h1M10 6h1M1 7h1M5 7h1M1 8h1M11 8h1M2 9h1M12 9h1M7 10h1M11 10h1M13 10h1M10 11h1M14 11h1M11 14h2" />
<path stroke="#919091" d="M5 2h1M6 3h1M2 5h1M3 9h3M9 11h1M10 12h1" />
<path stroke="#919191" d="M7 4h1M2 6h1M2 7h1M2 8h1M6 9h2M8 10h1M11 13h2" />
<path stroke="#fefdfe" d="M4 5h1" />
<path stroke="#fefcfe" d="M6 5h1" />
<path stroke="#fefefd" d="M11 5h1" />
<path stroke="#fdfefe" d="M0 6h1" />
<path stroke="#f7f6f7" d="M5 6h1" />
<path stroke="#f6f7f7" d="M11 6h1M0 7h1" />
<path stroke="#e0e0e0" d="M3 7h1M7 7h1M3 8h2M7 8h2M9 9h1M9 10h2M11 11h1M12 12h1" />
<path stroke="#f0f0f1" d="M11 7h1" />
<path stroke="#f0f0f0" d="M0 8h1" />
<path stroke="#e0e1e0" d="M6 8h1M8 9h1" />
<path stroke="#eae9ea" d="M12 8h1" />
<path stroke="#eae9e9" d="M1 9h1" />
<path stroke="#e3e3e3" d="M13 9h1" />
<path stroke="#e2e2e2" d="M2 10h1" />
<path stroke="#d5d5d5" d="M14 10h1" />
<path stroke="#d6d5d5" d="M3 11h1" />
<path stroke="#d5d4d6" d="M4 11h1" />
<path stroke="#d5d6d5" d="M5 11h1" />
<path stroke="#d5d4d5" d="M6 11h2" />
<path stroke="#cfcece" d="M15 11h1" />
<path stroke="#cfcecf" d="M8 12h1" />
<path stroke="#c8c8c8" d="M15 12h1" />
<path stroke="#c7c8c7" d="M9 13h1" />
<path stroke="#c1c1c1" d="M14 13h1" />
<path stroke="#bababa" d="M10 14h1" />
<path stroke="#babbbb" d="M13 14h1" />
<path stroke="#b3b4b4" d="M11 15h1" />
<path stroke="#b3b4b3" d="M12 15h1" />
</svg>