<svg xmlns="http://www.w3.org/2000/svg" viewBox="0 -0.5 18 18" shape-rendering="crispEdges">
<metadata>Made with Pixels to Svg https://codepen.io/shshaw/pen/XbxvNj</metadata>
<path stroke="#ffffff" d="M5 0h4M4 1h1M9 1h1M3 2h1M6 2h3M10 2h1M2 3h1M4 3h1M7 3h3M11 3h1M1 4h1M3 4h1M5 4h1M8 4h3M12 4h1M0 5h1M4 5h1M6 5h1M9 5h2M12 5h1M3 6h1M9 6h2M4 7h1M8 7h3M5 8h1M7 8h1M9 8h2M6 9h1M10 9h2M11 10h2M12 11h2M14 12h1M15 13h1M15 14h1" />
<path stroke="#263238" d="M5 1h4M4 2h1M9 2h1M5 3h1M10 3h1M2 4h1M6 4h1M11 4h1M1 5h1M3 5h1M7 5h1M11 5h1M1 6h1M4 6h1M8 6h1M11 6h1M1 7h1M5 7h1M7 7h1M11 7h1M1 8h1M6 8h1M11 8h1M2 9h1M12 9h1M3 10h1M13 10h1M4 11h5M14 11h1M9 12h1M13 12h1M15 12h1M10 13h1M12 13h1M14 13h1M16 13h1M11 14h1M13 14h1M16 14h1M12 15h1M15 15h1M13 16h2" />
<path stroke="#919191" d="M5 2h1M6 3h1M7 4h1M2 5h1M8 5h1M2 6h1M2 7h1M2 8h1M3 9h1M4 10h5M9 11h1M10 12h1M11 13h1M12 14h1M13 15h2" />
<path stroke="#fdfefe" d="M0 6h1" />
<path stroke="#fefdfe" d="M5 6h1M7 6h1" />
<path stroke="#fefefd" d="M12 6h1" />
<path stroke="#f6f7f7" d="M0 7h1M12 7h1" />
<path stroke="#e0e0e0" d="M3 7h1M3 8h2M8 8h1M4 9h2M7 9h3M9 10h2M10 11h2M11 12h2M13 13h1M14 14h1" />
<path stroke="#f7f6f7" d="M6 7h1" />
<path stroke="#f0f0f0" d="M0 8h1" />
<path stroke="#f0f0f1" d="M12 8h1" />
<path stroke="#eae8e9" d="M1 9h1" />
<path stroke="#eae9ea" d="M13 9h1" />
<path stroke="#e2e3e2" d="M2 10h1" />
<path stroke="#e3e3e3" d="M14 10h1" />
<path stroke="#dcdcdb" d="M3 11h1M15 11h1" />
<path stroke="#d6d5d5" d="M4 12h1" />
<path stroke="#d5d5d6" d="M5 12h1" />
<path stroke="#d5d6d5" d="M6 12h1" />
<path stroke="#d5d5d5" d="M7 12h1M16 12h1" />
<path stroke="#d5d4d5" d="M8 12h1" />
<path stroke="#cfcecf" d="M9 13h1" />
<path stroke="#cfcfce" d="M17 13h1" />
<path stroke="#c7c8c7" d="M10 14h1" />
<path stroke="#c8c8c8" d="M17 14h1" />
<path stroke="#c2c0c1" d="M11 15h1" />
<path stroke="#c1c1c1" d="M16 15h1" />
<path stroke="#babbba" d="M12 16h1" />
<path stroke="#bababb" d="M15 16h1" />
<path stroke="#b3b4b4" d="M13 17h1" />
<path stroke="#b3b4b3" d="M14 17h1" />
</svg>