<svg xmlns="http://www.w3.org/2000/svg" viewBox="0 -0.5 16 16" shape-rendering="crispEdges">
<metadata>Made with Pixels to Svg https://codepen.io/shshaw/pen/XbxvNj</metadata>
<path stroke="#263238" d="M4 0h4M3 1h1M8 1h1M4 2h1M9 2h1M1 3h1M5 3h1M10 3h1M0 4h1M2 4h1M6 4h1M10 4h1M0 5h1M3 5h1M7 5h1M10 5h1M0 6h1M4 6h1M6 6h1M10 6h1M0 7h1M5 7h1M10 7h1M1 8h1M11 8h1M2 9h1M12 9h1M3 10h5M13 10h1M8 11h1M12 11h1M14 11h1M9 12h1M11 12h1M13 12h1M15 12h1M10 13h1M12 13h1M15 13h1M11 14h1M14 14h1M12 15h2" />
<path stroke="#919191" d="M4 1h1M5 2h1M6 3h1M1 4h1M7 4h1M1 5h1M1 6h1M1 7h1M2 8h1M3 9h5M8 10h1M9 11h1M10 12h1M11 13h1M12 14h2" />
<path stroke="#ffffff" d="M5 1h3M6 2h3M7 3h3M8 4h2M2 5h1M8 5h2M3 6h1M7 6h3M4 7h1M6 7h1M8 7h2M5 8h1M9 8h2M10 9h2M11 10h2M13 11h1M14 12h1M14 13h1" />
<path stroke="#e0e0e0" d="M2 6h1M2 7h2M7 7h1M3 8h2M6 8h3M8 9h2M9 10h2M10 11h2M12 12h1M13 13h1" />
</svg>