<svg xmlns="http://www.w3.org/2000/svg" viewBox="0 -0.5 16 16" shape-rendering="crispEdges">
<metadata>Made with Pixels to Svg https://codepen.io/shshaw/pen/XbxvNj</metadata>
<path stroke="#feffff" d="M10 0h1M12 0h3" />
<path stroke="#ffffff" d="M11 0h1" />
<path stroke="#fbfafa" d="M9 1h1M15 1h1" />
<path stroke="#263238" d="M10 1h1M14 1h1M9 2h1M14 2h1M2 3h2M5 3h4M12 3h3M1 4h1M14 4h1M1 5h1M14 5h1M1 6h1M14 6h1M1 7h1M1 8h1M14 8h1M1 9h1M1 10h1M14 10h1M14 11h1M14 12h1M14 13h1M1 14h7M10 14h1M12 14h3" />
<path stroke="#273238" d="M11 1h3M4 3h1M9 3h3M14 7h1M14 9h1M1 11h1M1 12h1M1 13h1M8 14h2M11 14h1" />
<path stroke="#f5f5f5" d="M2 2h1M4 2h1M6 2h1M8 2h1" />
<path stroke="#f4f5f5" d="M3 2h1M5 2h1M7 2h1M15 2h1" />
<path stroke="#ffb74d" d="M10 2h3M2 4h4M10 4h3M2 5h2M11 5h2M3 6h1M5 6h1M12 6h1M5 7h1M10 7h3M2 8h1M4 8h2M10 8h1M3 9h2M10 9h3M2 10h4M11 10h2M2 11h3M12 11h1M2 12h7M11 12h1" />
<path stroke="#b68238" d="M13 2h1M3 13h1M5 13h1M7 13h1M12 13h2" />
<path stroke="#f0f0f0" d="M1 3h1M15 3h1" />
<path stroke="#ebebeb" d="M0 4h1" />
<path stroke="#7986cb" d="M6 4h1M8 5h2M6 6h2M8 7h2M6 8h2M9 9h1" />
<path stroke="#7886cb" d="M7 4h1M8 9h1" />
<path stroke="#e0e0e0" d="M8 4h2M7 5h1M8 6h2M6 7h1M9 8h1M7 9h1" />
<path stroke="#b78238" d="M13 4h1M13 5h1M13 6h1M13 7h1M13 8h1M13 9h1M13 10h1M13 11h1M13 12h1M2 13h1M4 13h1M6 13h1M8 13h4" />
<path stroke="#eaebeb" d="M15 4h1" />
<path stroke="#e7e6e6" d="M0 5h1" />
<path stroke="#feb74d" d="M4 5h2M10 5h1M2 6h1M4 6h1M10 6h2M2 7h3M3 8h1M11 8h2M2 9h1M5 9h1M10 10h1M5 11h1M10 11h2M9 12h2M12 12h1" />
<path stroke="#e1e0e0" d="M6 5h1M7 7h1M8 8h1M6 9h1" />
<path stroke="#e7e7e7" d="M15 5h1" />
<path stroke="#e2e2e2" d="M0 6h1M15 6h1" />
<path stroke="#dcdddd" d="M0 7h1M15 7h1" />
<path stroke="#d8d8d8" d="M0 8h1M15 8h1" />
<path stroke="#d3d3d3" d="M0 9h1" />
<path stroke="#d2d3d3" d="M15 9h1" />
<path stroke="#cecece" d="M0 10h1M15 10h1" />
<path stroke="#919191" d="M6 10h2M9 10h1M6 11h1M9 11h1" />
<path stroke="#909191" d="M8 10h1M7 11h2" />
<path stroke="#c8c9c9" d="M0 11h1" />
<path stroke="#cbcaca" d="M15 11h1" />
<path stroke="#c5c5c5" d="M0 12h1M15 12h1" />
<path stroke="#c0c0c0" d="M0 13h1" />
<path stroke="#c1c0c0" d="M15 13h1" />
<path stroke="#babbbb" d="M0 14h1M15 14h1" />
<path stroke="#b7b6b6" d="M1 15h3M6 15h1M8 15h1M10 15h3" />
<path stroke="#b6b6b6" d="M4 15h2M7 15h1M9 15h1M13 15h2" />
</svg>