<svg xmlns="http://www.w3.org/2000/svg" viewBox="0 -0.5 256 256" shape-rendering="crispEdges">
<metadata>Made with Pixels to Svg https://codepen.io/shshaw/pen/XbxvNj</metadata>
<path stroke="#212e35" d="M96 0h64M96 1h30M127 1h33M96 2h64M96 3h64M96 4h64M96 5h64M96 6h64M96 7h64M72 8h112M72 9h73M146 9h38M72 10h112M72 11h6M79 11h105M72 12h112M72 13h67M140 13h4M145 13h39M72 14h112M72 15h112M56 16h52M109 16h91M56 17h144M56 18h144M56 19h144M56 20h144M56 21h144M56 22h144M56 23h60M117 23h83M48 24h160M48 25h160M48 26h160M48 27h160M48 28h160M48 29h160M48 30h160M48 31h160M40 32h16M64 32h24M152 32h24M200 32h16M40 33h16M64 33h24M152 33h24M200 33h16M40 34h16M64 34h24M152 34h24M200 34h16M40 35h16M64 35h24M152 35h24M200 35h16M40 36h16M64 36h24M152 36h24M200 36h16M40 37h16M64 37h19M84 37h4M152 37h24M200 37h16M40 38h16M64 38h5M70 38h18M152 38h24M200 38h16M40 39h16M64 39h24M152 39h24M200 39h16M32 40h24M64 40h16M184 40h16M208 40h16M32 41h24M64 41h16M184 41h16M208 41h16M32 42h24M64 42h16M184 42h16M208 42h16M32 43h24M64 43h16M184 43h16M208 43h16M32 44h24M64 44h16M184 44h16M208 44h16M32 45h24M64 45h16M184 45h16M208 45h16M32 46h24M64 46h16M184 46h16M208 46h16M32 47h24M64 47h16M184 47h8M193 47h7M208 47h16M24 48h32M64 48h8M184 48h16M208 48h24M24 49h32M64 49h8M184 49h16M208 49h24M24 50h23M48 50h8M64 50h8M184 50h16M208 50h24M24 51h32M64 51h8M184 51h16M208 51h24M24 52h32M64 52h8M184 52h16M208 52h24M24 53h32M64 53h8M184 53h16M208 53h24M24 54h21M46 54h10M64 54h8M184 54h16M208 54h24M24 55h32M64 55h8M184 55h16M208 55h24M16 56h20M37 56h19M208 56h32M16 57h40M208 57h32M16 58h3M20 58h36M208 58h32M16 59h40M208 59h32M16 60h40M208 60h32M16 61h40M208 61h32M16 62h40M208 62h32M16 63h40M208 63h32M16 64h40M200 64h40M16 65h40M200 65h40M16 66h40M200 66h38M239 66h1M16 67h40M200 67h40M16 68h40M200 68h40M16 69h40M200 69h40M16 70h40M200 70h40M16 71h40M200 71h40M8 72h40M208 72h40M8 73h40M208 73h40M8 74h40M208 74h40M8 75h40M208 75h40M8 76h40M208 76h40M8 77h40M208 77h40M8 78h40M208 78h40M8 79h40M208 79h40M8 80h20M29 80h3M64 80h40M152 80h40M216 80h32M8 81h24M64 81h40M152 81h40M216 81h32M8 82h24M64 82h40M152 82h40M216 82h32M8 83h24M64 83h40M152 83h40M216 83h32M8 84h24M64 84h40M152 84h40M216 84h32M8 85h24M64 85h40M152 85h40M216 85h32M8 86h24M64 86h40M152 86h40M216 86h32M8 87h24M64 87h40M152 87h40M216 87h32M8 88h24M56 88h8M104 88h48M192 88h8M216 88h32M8 89h24M56 89h8M104 89h48M192 89h8M216 89h32M8 90h24M56 90h8M104 90h13M118 90h1M120 90h32M192 90h7M216 90h32M8 91h24M56 91h8M104 91h48M192 91h8M216 91h32M8 92h24M56 92h8M104 92h48M192 92h8M216 92h32M8 93h24M56 93h8M104 93h48M192 93h8M216 93h32M8 94h24M56 94h8M104 94h48M192 94h8M216 94h32M8 95h24M56 95h8M104 95h39M144 95h8M192 95h8M216 95h32M0 96h23M24 96h8M48 96h8M200 96h8M224 96h32M0 97h32M48 97h8M200 97h8M224 97h32M0 98h32M48 98h8M200 98h8M224 98h32M0 99h32M48 99h8M200 99h8M224 99h32M0 100h32M48 100h8M200 100h8M224 100h32M0 101h32M48 101h8M200 101h8M224 101h32M0 102h32M48 102h8M200 102h8M224 102h32M0 103h32M48 103h8M200 103h8M224 103h32M0 104h32M40 104h8M72 104h8M208 104h8M224 104h32M0 105h32M40 105h8M72 105h8M208 105h8M224 105h32M0 106h32M40 106h8M72 106h8M208 106h8M224 106h32M0 107h28M29 107h3M40 107h8M72 107h8M208 107h8M224 107h32M0 108h32M40 108h8M72 108h8M208 108h8M224 108h32M0 109h32M40 109h8M72 109h8M208 109h8M224 109h32M0 110h32M40 110h8M72 110h8M208 110h8M224 110h32M0 111h32M40 111h8M72 111h8M208 111h8M224 111h32M0 112h32M40 112h8M73 112h7M208 112h8M224 112h32M0 113h32M40 113h8M72 113h8M208 113h8M224 113h32M0 114h32M40 114h8M72 114h8M208 114h8M224 114h32M1 115h31M40 115h8M72 115h8M208 115h8M224 115h32M0 116h32M40 116h8M72 116h8M208 116h8M224 116h24M249 116h7M0 117h15M16 117h16M40 117h8M72 117h8M208 117h8M224 117h32M0 118h32M40 118h8M72 118h8M208 118h8M224 118h32M0 119h32M40 119h8M72 119h8M208 119h8M224 119h32M0 120h32M40 120h8M56 120h40M208 120h8M224 120h32M0 121h32M40 121h8M56 121h40M208 121h8M224 121h32M0 122h32M40 122h8M56 122h40M208 122h8M224 122h32M0 123h32M40 123h8M56 123h40M208 123h8M224 123h32M0 124h32M40 124h8M56 124h40M208 124h8M224 124h32M0 125h32M40 125h8M56 125h40M208 125h8M224 125h32M0 126h32M40 126h8M56 126h5M62 126h34M208 126h8M224 126h32M0 127h32M40 127h8M56 127h40M208 127h8M224 127h32M0 128h24M40 128h8M72 128h8M104 128h16M136 128h16M208 128h8M225 128h31M0 129h24M40 129h8M72 129h8M104 129h16M136 129h16M208 129h8M224 129h32M0 130h24M40 130h8M72 130h8M104 130h16M136 130h16M208 130h8M224 130h32M0 131h24M40 131h8M72 131h8M104 131h16M136 131h16M208 131h8M224 131h32M0 132h24M40 132h8M72 132h8M104 132h16M136 132h16M208 132h8M224 132h32M0 133h24M40 133h8M72 133h8M104 133h16M136 133h16M208 133h8M224 133h32M0 134h22M23 134h1M40 134h8M72 134h8M104 134h16M136 134h16M208 134h8M224 134h32M0 135h24M40 135h8M72 135h8M104 135h16M136 135h16M208 135h8M224 135h32M0 136h24M40 136h8M72 136h8M208 136h8M232 136h10M243 136h13M0 137h24M40 137h8M72 137h8M208 137h8M232 137h24M0 138h24M40 138h8M72 138h8M208 138h8M232 138h24M0 139h24M40 139h8M72 139h8M208 139h8M232 139h24M0 140h24M40 140h8M72 140h8M208 140h8M232 140h24M0 141h24M40 141h8M72 141h8M208 141h8M232 141h24M0 142h24M40 142h8M72 142h8M208 142h8M232 142h24M0 143h24M40 143h8M72 143h8M208 143h8M232 143h24M0 144h24M40 144h8M96 144h64M208 144h8M232 144h24M0 145h24M40 145h8M96 145h64M208 145h8M232 145h24M0 146h24M40 146h8M96 146h64M208 146h8M232 146h24M0 147h24M40 147h8M96 147h64M208 147h8M232 147h24M0 148h24M40 148h8M96 148h64M208 148h8M232 148h24M0 149h24M40 149h8M96 149h64M208 149h8M232 149h24M0 150h24M40 150h8M96 150h61M158 150h2M208 150h8M232 150h24M0 151h24M40 151h8M96 151h64M208 151h8M232 151h24M0 152h5M6 152h18M48 152h8M88 152h8M160 152h8M200 152h8M232 152h24M0 153h23M48 153h8M88 153h8M160 153h8M200 153h8M232 153h24M0 154h24M48 154h8M88 154h8M160 154h8M200 154h8M232 154h24M0 155h24M48 155h8M88 155h8M160 155h8M200 155h8M232 155h24M0 156h24M48 156h8M88 156h8M160 156h8M200 156h8M232 156h24M0 157h24M48 157h8M88 157h8M160 157h8M200 157h8M232 157h1M234 157h22M0 158h24M48 158h8M88 158h8M160 158h8M200 158h8M232 158h24M0 159h24M48 159h8M88 159h8M160 159h8M200 159h8M232 159h24M8 160h32M56 160h32M168 160h32M216 160h32M8 161h32M56 161h32M168 161h32M216 161h19M236 161h12M8 162h32M56 162h32M168 162h32M216 162h32M8 163h32M56 163h32M168 163h32M216 163h32M8 164h32M56 164h32M168 164h32M216 164h32M8 165h32M56 165h32M168 165h32M216 165h32M8 166h32M56 166h32M168 166h32M216 166h32M8 167h18M27 167h13M56 167h24M81 167h7M168 167h28M197 167h3M216 167h32M8 168h32M217 168h31M8 169h32M216 169h32M8 170h32M216 170h32M8 171h32M216 171h32M8 172h32M216 172h8M225 172h23M8 173h32M216 173h32M8 174h32M216 174h32M8 175h32M216 175h32M8 176h40M208 176h40M8 177h40M208 177h40M8 178h40M208 178h40M8 179h40M208 179h40M8 180h40M208 180h26M235 180h13M8 181h40M208 181h40M8 182h40M208 182h40M8 183h40M208 183h40M16 184h40M208 184h32M16 185h40M208 185h32M16 186h40M208 186h32M16 187h40M208 187h32M16 188h40M208 188h32M16 189h40M208 189h32M16 190h40M208 190h32M16 191h40M208 191h32M16 192h40M192 192h8M208 192h32M16 193h40M192 193h8M208 193h32M16 194h40M192 194h8M208 194h32M16 195h40M192 195h8M208 195h32M16 196h40M192 196h8M208 196h32M16 197h40M192 197h8M208 197h32M16 198h40M192 198h8M208 198h32M16 199h40M192 199h8M208 199h32M24 200h32M64 200h8M208 200h24M24 201h32M64 201h8M208 201h24M24 202h32M64 202h8M208 202h24M24 203h32M64 203h8M208 203h24M24 204h32M64 204h8M208 204h24M24 205h32M64 205h8M208 205h24M24 206h32M64 206h8M208 206h24M24 207h32M64 207h8M208 207h24M32 208h48M176 208h48M32 209h48M176 209h48M32 210h48M176 210h48M32 211h48M176 211h48M32 212h48M176 212h48M32 213h48M176 213h48M32 214h25M58 214h22M176 214h48M32 215h48M176 215h48M40 216h64M152 216h27M180 216h1M182 216h34M40 217h64M152 217h64M40 218h64M152 218h64M40 219h64M152 219h64M40 220h64M152 220h64M40 221h64M152 221h64M40 222h64M152 222h64M40 223h64M152 223h64M48 224h24M73 224h135M48 225h160M48 226h160M48 227h160M48 228h160M48 229h16M65 229h143M48 230h160M48 231h160M56 232h20M77 232h123M56 233h144M56 234h144M56 235h144M56 236h144M56 237h144M56 238h103M160 238h40M56 239h17M74 239h126M72 240h112M72 241h112M72 242h88M161 242h23M72 243h112M72 244h112M72 245h112M72 246h112M72 247h112M96 248h64M96 249h64M96 250h64M96 251h64M96 252h64M96 253h64M96 254h64M96 255h64" />
<path stroke="#212f35" d="M126 1h1M145 9h1M78 11h1M139 13h1M144 13h1M108 16h1M116 23h1M83 37h1M69 38h1M192 47h1M47 50h1M45 54h1M36 56h1M19 58h1M238 66h1M28 80h1M117 90h1M119 90h1M199 90h1M143 95h1M23 96h1M28 107h1M72 112h1M0 115h1M248 116h1M15 117h1M61 126h1M224 128h1M22 134h1M242 136h1M157 150h1M5 152h1M23 153h1M233 157h1M235 161h1M26 167h1M80 167h1M196 167h1M216 168h1M224 172h1M234 180h1M57 214h1M179 216h1M181 216h1M72 224h1M64 229h1M76 232h1M159 238h1M73 239h1M160 242h1" />
<path stroke="#59daa5" d="M56 32h8M88 32h24M144 32h8M176 32h24M56 33h8M88 33h24M144 33h8M176 33h2M179 33h21M56 34h8M88 34h24M144 34h8M176 34h24M56 35h8M88 35h24M144 35h8M176 35h24M56 36h8M88 36h24M144 36h8M176 36h24M56 37h8M88 37h24M144 37h8M176 37h24M56 38h8M88 38h24M144 38h8M176 38h24M56 39h8M88 39h24M144 39h8M176 39h24M56 40h8M88 40h8M112 40h8M144 40h8M176 40h8M200 40h8M56 41h8M88 41h8M112 41h8M144 41h8M176 41h8M200 41h8M56 42h8M88 42h8M112 42h8M144 42h8M176 42h8M200 42h8M56 43h8M88 43h8M112 43h8M144 43h8M176 43h8M200 43h8M56 44h8M88 44h8M112 44h8M144 44h8M176 44h8M200 44h8M56 45h2M60 45h4M88 45h8M112 45h8M144 45h8M176 45h8M200 45h8M56 46h8M88 46h8M112 46h8M144 46h8M176 46h8M200 46h8M56 47h8M88 47h8M112 47h8M144 47h8M176 47h8M200 47h8M56 48h8M88 48h8M112 48h8M144 48h8M176 48h8M200 48h8M56 49h8M88 49h8M112 49h8M144 49h8M176 49h8M200 49h8M56 50h8M88 50h8M112 50h8M144 50h8M176 50h8M200 50h8M56 51h8M88 51h8M112 51h8M144 51h8M176 51h8M200 51h8M56 52h8M88 52h8M112 52h8M144 52h8M176 52h8M200 52h8M56 53h8M88 53h8M112 53h8M144 53h8M176 53h8M200 53h8M56 54h8M88 54h8M112 54h8M144 54h8M176 54h8M200 54h8M56 55h8M88 55h8M112 55h8M144 55h8M176 55h8M200 55h8M56 56h8M88 56h32M144 56h8M176 56h32M56 57h8M88 57h32M144 57h8M176 57h32M56 58h8M88 58h32M144 58h8M176 58h32M56 59h8M88 59h32M144 59h8M176 59h32M56 60h8M88 60h32M144 60h8M176 60h32M56 61h8M88 61h32M144 61h8M176 61h32M56 62h8M88 62h32M144 62h8M176 62h32M56 63h8M88 63h32M144 63h8M176 63h32M32 80h8M208 80h8M32 81h8M208 81h8M32 82h8M208 82h8M32 83h8M208 83h8M32 84h8M208 84h8M32 85h8M208 85h8M32 86h8M208 86h8M32 87h8M208 87h8M32 88h8M32 89h8M32 90h8M32 91h8M32 92h8M32 93h8M32 94h8M32 95h8M24 128h8M24 129h8M24 130h8M24 131h8M24 132h8M24 133h8M24 134h8M24 135h8M24 136h8M224 136h8M24 137h8M224 137h8M24 138h8M224 138h8M24 139h8M224 139h8M24 140h8M224 140h8M24 141h8M224 141h8M24 142h8M224 142h8M24 143h8M224 143h8M24 144h8M224 144h8M24 145h8M224 145h8M24 146h8M224 146h8M24 147h8M224 147h8M24 148h8M224 148h8M24 149h8M224 149h8M24 150h8M224 150h8M24 151h8M224 151h8M24 152h8M224 152h8M24 153h8M224 153h8M24 154h8M224 154h8M24 155h8M224 155h8M24 156h8M224 156h8M24 157h8M224 157h8M24 158h8M224 158h8M24 159h8M224 159h8M56 176h8M88 176h24M144 176h8M176 176h24M56 177h8M88 177h15M104 177h3M108 177h4M144 177h8M176 177h24M56 178h8M88 178h24M144 178h8M176 178h24M56 179h8M88 179h24M144 179h8M176 179h24M56 180h8M88 180h24M144 180h8M176 180h24M56 181h8M88 181h24M144 181h8M176 181h24M56 182h8M88 182h24M144 182h8M176 182h24M56 183h8M88 183h24M144 183h8M176 183h24M56 184h8M88 184h8M112 184h8M144 184h8M176 184h8M200 184h8M56 185h8M88 185h8M112 185h8M144 185h8M176 185h8M200 185h8M56 186h8M88 186h8M112 186h8M144 186h8M176 186h8M200 186h8M56 187h8M88 187h8M112 187h8M144 187h8M176 187h8M200 187h8M56 188h8M88 188h8M112 188h8M144 188h8M176 188h8M200 188h8M56 189h8M88 189h8M112 189h8M144 189h8M176 189h8M200 189h8M56 190h8M88 190h8M112 190h8M144 190h8M176 190h8M200 190h8M56 191h8M88 191h8M112 191h8M144 191h8M176 191h8M200 191h8M56 192h8M88 192h8M112 192h8M145 192h7M176 192h8M200 192h8M56 193h8M88 193h8M112 193h8M144 193h8M176 193h8M200 193h8M56 194h8M88 194h8M112 194h8M144 194h8M176 194h8M200 194h8M56 195h8M88 195h8M112 195h8M144 195h8M176 195h8M200 195h8M56 196h8M88 196h8M112 196h8M144 196h8M176 196h8M200 196h8M56 197h8M88 197h8M112 197h8M144 197h8M176 197h8M200 197h8M56 198h8M88 198h8M112 198h8M144 198h8M176 198h8M200 198h8M56 199h8M88 199h8M112 199h8M144 199h8M176 199h8M200 199h8M56 200h8M88 200h32M144 200h8M176 200h32M56 201h8M88 201h32M144 201h8M176 201h32M56 202h8M88 202h32M144 202h8M176 202h32M56 203h8M88 203h32M144 203h8M176 203h32M56 204h8M88 204h32M144 204h8M176 204h32M56 205h8M88 205h32M144 205h8M176 205h32M56 206h8M88 206h32M144 206h8M176 206h32M56 207h8M88 207h32M144 207h8M176 207h32" />
<path stroke="#131c21" d="M112 32h32M112 33h7M120 33h24M112 34h32M112 35h32M112 36h32M112 37h32M112 38h32M112 39h32M80 40h8M96 40h16M120 40h24M152 40h24M80 41h8M96 41h16M120 41h24M152 41h24M80 42h8M96 42h16M120 42h24M152 42h24M80 43h8M96 43h16M120 43h24M152 43h24M80 44h8M96 44h16M120 44h24M152 44h24M80 45h8M96 45h16M120 45h24M152 45h24M80 46h8M96 46h16M120 46h24M152 46h24M80 47h8M96 47h16M120 47h24M152 47h24M72 48h16M96 48h16M120 48h24M152 48h24M72 49h16M96 49h16M120 49h24M152 49h24M72 50h16M96 50h16M120 50h24M152 50h24M72 51h16M96 51h16M120 51h24M152 51h9M162 51h14M72 52h16M96 52h16M120 52h24M152 52h24M72 53h16M96 53h7M104 53h8M120 53h24M152 53h24M72 54h16M96 54h16M120 54h24M152 54h24M72 55h16M96 55h16M120 55h24M152 55h24M64 56h24M120 56h24M152 56h24M64 57h24M120 57h24M152 57h24M64 58h24M120 58h15M136 58h8M152 58h24M64 59h24M120 59h24M152 59h24M64 60h24M120 60h24M152 60h16M169 60h7M64 61h6M71 61h17M120 61h24M152 61h24M64 62h24M120 62h24M152 62h24M64 63h24M120 63h24M152 63h24M56 64h144M56 65h121M178 65h22M56 66h44M101 66h99M56 67h144M56 68h144M56 69h144M56 70h141M198 70h2M56 71h93M150 71h50M48 72h8M200 72h8M48 73h8M200 73h8M48 74h8M200 74h8M48 75h8M200 75h8M48 76h8M200 76h8M48 77h8M200 77h8M48 78h8M200 78h8M48 79h8M200 79h8M40 80h8M40 81h8M40 82h8M40 83h8M40 84h8M40 85h8M40 86h8M40 87h8M40 168h8M208 168h8M40 169h8M208 169h8M40 170h8M208 170h8M40 171h8M208 171h8M40 172h8M208 172h8M40 173h8M208 173h8M40 174h8M208 174h8M40 175h8M208 175h8M48 176h8M64 176h24M152 176h24M200 176h8M48 177h8M64 177h24M152 177h24M200 177h4M205 177h3M48 178h8M64 178h24M152 178h24M200 178h8M48 179h8M64 179h24M152 179h24M200 179h8M48 180h8M64 180h24M152 180h24M200 180h8M48 181h8M64 181h24M152 181h24M200 181h8M48 182h8M64 182h24M152 182h24M200 182h8M48 183h8M64 183h24M152 183h24M200 183h8M64 184h24M96 184h16M120 184h24M152 184h24M184 184h16M64 185h24M96 185h16M120 185h8M129 185h15M152 185h24M184 185h16M64 186h24M96 186h16M120 186h24M152 186h24M184 186h16M64 187h24M96 187h16M120 187h24M152 187h15M168 187h8M184 187h16M64 188h24M96 188h16M120 188h24M152 188h24M184 188h16M64 189h24M96 189h16M120 189h24M152 189h24M184 189h16M64 190h24M96 190h16M120 190h24M152 190h24M184 190h16M64 191h24M96 191h16M120 191h24M152 191h24M184 191h16M64 192h24M96 192h16M120 192h24M152 192h24M184 192h8M64 193h24M96 193h16M120 193h24M152 193h24M184 193h8M64 194h24M96 194h16M120 194h24M152 194h24M184 194h8M64 195h24M96 195h16M120 195h24M152 195h24M184 195h8M64 196h24M96 196h16M120 196h24M152 196h24M184 196h8M64 197h24M96 197h16M120 197h24M152 197h20M173 197h3M184 197h8M64 198h24M96 198h16M120 198h24M152 198h24M184 198h8M64 199h24M96 199h16M120 199h24M152 199h24M184 199h8M72 200h16M120 200h24M152 200h24M72 201h16M120 201h24M152 201h24M72 202h16M120 202h24M152 202h24M72 203h16M120 203h24M152 203h24M72 204h16M120 204h24M152 204h24M72 205h16M120 205h24M152 205h24M72 206h16M120 206h24M152 206h24M72 207h16M120 207h24M152 207h24M80 208h73M154 208h22M80 209h96M80 210h96M80 211h96M80 212h96M80 213h76M157 213h19M80 214h96M80 215h96M104 216h48M104 217h48M104 218h48M104 219h48M104 220h48M104 221h48M104 222h48M104 223h48" />
<path stroke="#131d21" d="M119 33h1M161 51h1M103 53h1M135 58h1M168 60h1M70 61h1M177 65h1M100 66h1M197 70h1M149 71h1M204 177h1M128 185h1M167 187h1M172 197h1M153 208h1M156 213h1" />
<path stroke="#59dba5" d="M178 33h1M58 45h2M103 177h1M107 177h1M144 192h1" />
<path stroke="#e1e1e1" d="M56 72h52M109 72h3M152 72h48M56 73h28M85 73h27M152 73h48M56 74h56M152 74h15M168 74h32M56 75h56M152 75h48M56 76h56M152 76h48M56 77h56M152 77h48M56 78h56M152 78h48M56 79h56M152 79h48M48 80h16M104 80h48M192 80h16M48 81h16M104 81h48M192 81h16M48 82h16M104 82h48M192 82h16M48 83h16M104 83h48M192 83h16M48 84h16M104 84h48M192 84h16M48 85h8M57 85h7M104 85h48M192 85h16M48 86h16M104 86h48M192 86h16M48 87h16M104 87h48M192 87h16M40 88h16M200 88h16M40 89h16M200 89h16M40 90h16M200 90h16M40 91h16M200 91h16M40 92h16M200 92h16M40 93h16M200 93h11M212 93h4M40 94h16M200 94h16M40 95h16M200 95h16M32 96h16M64 96h40M152 96h40M208 96h16M32 97h16M64 97h40M152 97h40M208 97h16M32 98h16M64 98h40M152 98h40M208 98h16M32 99h16M64 99h40M152 99h1M154 99h38M208 99h16M32 100h16M64 100h31M96 100h8M152 100h40M208 100h16M32 101h16M64 101h40M152 101h40M208 101h16M32 102h16M64 102h40M152 102h40M208 102h16M32 103h16M64 103h40M152 103h40M208 103h16M32 104h8M56 104h16M80 104h80M176 104h24M216 104h8M32 105h8M56 105h16M80 105h80M176 105h24M216 105h6M223 105h1M32 106h8M56 106h16M80 106h80M176 106h24M216 106h8M32 107h8M56 107h16M80 107h80M176 107h24M216 107h8M32 108h8M56 108h16M80 108h9M90 108h43M134 108h26M176 108h24M216 108h8M32 109h8M56 109h16M80 109h80M176 109h24M216 109h8M32 110h8M56 110h16M80 110h80M176 110h24M216 110h8M32 111h8M56 111h16M80 111h80M176 111h24M216 111h8M32 112h8M48 112h24M80 112h80M176 112h32M216 112h8M32 113h8M48 113h24M80 113h80M176 113h32M216 113h8M32 114h8M48 114h24M80 114h80M176 114h32M216 114h8M32 115h8M48 115h24M80 115h80M176 115h32M216 115h8M32 116h6M39 116h1M48 116h24M80 116h80M176 116h32M216 116h8M32 117h8M48 117h24M80 117h80M176 117h32M216 117h8M32 118h8M48 118h24M80 118h80M176 118h32M216 118h8M32 119h8M48 119h24M80 119h80M176 119h32M216 119h8M32 120h8M48 120h8M96 120h88M200 120h8M216 120h8M32 121h8M48 121h8M96 121h88M200 121h8M216 121h8M32 122h8M48 122h8M96 122h45M142 122h42M200 122h8M216 122h8M32 123h8M48 123h8M96 123h88M200 123h8M216 123h8M32 124h8M48 124h8M96 124h84M181 124h3M200 124h8M216 124h8M32 125h8M48 125h8M96 125h88M200 125h8M216 125h8M32 126h8M48 126h8M96 126h88M200 126h8M216 126h8M32 127h8M48 127h8M96 127h88M200 127h8M216 127h8M32 128h8M48 128h24M80 128h24M120 128h16M152 128h32M200 128h8M216 128h8M32 129h8M48 129h24M80 129h24M120 129h16M152 129h32M200 129h8M216 129h8M32 130h8M48 130h23M80 130h24M120 130h16M152 130h32M200 130h8M216 130h8M32 131h8M48 131h24M80 131h18M99 131h5M120 131h16M152 131h32M200 131h8M216 131h8M32 132h8M48 132h24M80 132h24M120 132h16M152 132h32M200 132h8M216 132h8M32 133h8M48 133h24M80 133h24M120 133h16M152 133h32M200 133h8M216 133h8M32 134h8M48 134h24M80 134h24M120 134h16M152 134h32M200 134h8M216 134h8M32 135h8M48 135h24M80 135h24M120 135h16M152 135h32M200 135h8M216 135h8M32 136h8M48 136h24M80 136h128M216 136h8M32 137h8M48 137h24M80 137h128M216 137h8M32 138h8M48 138h24M80 138h128M216 138h8M32 139h8M48 139h24M80 139h128M216 139h8M32 140h8M48 140h24M80 140h128M216 140h8M32 141h8M48 141h24M80 141h9M90 141h49M140 141h68M216 141h8M32 142h8M48 142h24M80 142h23M104 142h104M216 142h8M32 143h8M48 143h24M80 143h1M82 143h68M151 143h57M216 143h8M32 144h8M56 144h32M168 144h32M216 144h1M218 144h6M32 145h8M56 145h32M168 145h32M216 145h8M32 146h8M56 146h32M168 146h1M170 146h30M216 146h8M32 147h8M56 147h32M168 147h32M216 147h8M32 148h8M56 148h32M168 148h32M216 148h8M32 149h8M56 149h22M79 149h9M168 149h32M216 149h8M32 150h8M56 150h32M168 150h32M216 150h8M32 151h8M56 151h32M168 151h32M216 151h8M32 152h16M96 152h64M208 152h16M32 153h16M96 153h64M209 153h15M32 154h16M96 154h64M208 154h16M32 155h16M96 155h64M208 155h16M32 156h16M96 156h10M107 156h53M208 156h16M32 157h16M96 157h64M208 157h16M32 158h16M96 158h64M208 158h16M32 159h16M96 159h64M208 159h16M40 160h16M88 160h16M152 160h16M200 160h16M40 161h16M88 161h16M152 161h16M200 161h16M40 162h16M88 162h16M152 162h16M200 162h16M40 163h16M88 163h16M152 163h16M200 163h16M40 164h16M88 164h16M152 164h16M200 164h16M40 165h16M88 165h16M152 165h16M200 165h16M40 166h16M88 166h16M152 166h16M200 166h16M40 167h16M88 167h16M152 167h16M200 167h16M48 168h48M160 168h48M48 169h48M160 169h48M48 170h48M160 170h48M48 171h8M57 171h39M160 171h48M48 172h48M160 172h48M48 173h48M160 173h48M48 174h48M160 174h48M48 175h48M160 175h48" />
<path stroke="#e1e0e1" d="M108 72h1M84 73h1M167 74h1M56 85h1M211 93h1M153 99h1M95 100h1M222 105h1M89 108h1M133 108h1M38 116h1M141 122h1M180 124h1M71 130h1M98 131h1M89 141h1M139 141h1M103 142h1M81 143h1M150 143h1M217 144h1M169 146h1M78 149h1M208 153h1M106 156h1M56 171h1" />
<path stroke="#0b1215" d="M112 72h40M112 73h40M112 74h40M112 75h40M112 76h40M112 77h40M112 78h40M112 79h24M137 79h15M104 160h48M104 161h48M104 162h48M104 163h48M104 164h48M104 165h48M104 166h48M104 167h48M96 168h26M123 168h37M96 169h64M96 170h17M114 170h46M96 171h64M96 172h19M116 172h44M96 173h64M97 174h63M96 175h64M112 176h32M112 177h32M112 178h32M112 179h32M112 180h32M112 181h30M143 181h1M112 182h32M112 183h32" />
<path stroke="#0b1315" d="M136 79h1M122 168h1M113 170h1M115 172h1M96 174h1M142 181h1" />
<path stroke="#f9f9f9" d="M64 88h40M152 88h40M64 89h40M152 89h40M64 90h40M152 90h40M64 91h40M152 91h40M64 92h40M152 92h40M64 93h40M152 93h40M64 94h40M152 94h40M64 95h40M152 95h40M56 96h8M104 96h48M192 96h8M56 97h8M104 97h1M106 97h46M192 97h8M56 98h8M104 98h48M192 98h8M56 99h8M104 99h48M192 99h8M56 100h8M104 100h48M192 100h8M56 101h8M104 101h48M192 101h8M56 102h8M104 102h48M192 102h8M56 103h8M104 103h48M192 103h8M48 104h8M200 104h8M48 105h8M200 105h8M48 106h8M200 106h6M207 106h1M48 107h8M200 107h8M48 108h8M200 108h8M48 109h8M200 109h8M48 110h8M200 110h8M48 111h8M200 111h8" />
<path stroke="#f9f8f9" d="M105 97h1M206 106h1" />
<path stroke="#f06293" d="M160 104h16M160 105h16M160 106h16M160 107h16M160 108h16M160 109h16M160 110h16M160 111h16M160 112h16M160 113h11M172 113h4M160 114h16M160 115h16M160 116h16M160 117h16M160 118h16M160 119h16" />
<path stroke="#f06393" d="M171 113h1" />
<path stroke="#82c885" d="M184 120h16M184 121h16M184 122h16M184 123h16M184 124h16M184 125h16M184 126h16M184 127h16M184 128h16M184 129h16M184 130h16M184 131h16M184 132h16M184 133h16M184 134h16M184 135h16" />
<path stroke="#80868a" d="M48 144h8M88 144h8M160 144h8M200 144h8M48 145h8M88 145h8M160 145h8M200 145h8M48 146h8M88 146h8M160 146h8M200 146h8M48 147h8M88 147h8M160 147h8M200 147h8M48 148h8M88 148h8M160 148h8M200 148h8M48 149h8M88 149h8M160 149h8M200 149h8M48 150h8M88 150h8M160 150h8M200 150h8M48 151h8M88 151h8M160 151h8M200 151h8M56 152h32M168 152h32M56 153h32M168 153h32M56 154h32M168 154h32M56 155h32M168 155h32M56 156h32M168 156h32M56 157h11M68 157h20M168 157h32M56 158h32M168 158h32M56 159h32M168 159h32" />
<path stroke="#80878a" d="M67 157h1" />
</svg>